<svg width="26" height="27" viewBox="0 0 26 27" fill="none" xmlns="http://www.w3.org/2000/svg">
<g clip-path="url(#clip0_1219_582)">
<path d="M18.8956 8.86467C18.8956 7.10138 18.232 5.41031 17.0508 4.16348C15.8696 2.91665 14.2675 2.21619 12.5971 2.21619C10.9266 2.21619 9.32455 2.91665 8.14335 4.16348C6.96215 5.41031 6.29855 7.10138 6.29855 8.86467C6.29855 16.6212 3.14929 18.8374 3.14929 18.8374H22.0449C22.0449 18.8374 18.8956 16.6212 18.8956 8.86467Z" stroke="black" stroke-width="2" stroke-linecap="round" stroke-linejoin="round"/>
<path d="M14.4131 23.2697C14.2285 23.6055 13.9636 23.8843 13.6449 24.078C13.3262 24.2718 12.9648 24.3738 12.597 24.3738C12.2292 24.3738 11.8678 24.2718 11.5491 24.078C11.2304 23.8843 10.9655 23.6055 10.7809 23.2697" stroke="black" stroke-width="2" stroke-linecap="round" stroke-linejoin="round"/>
</g>
<defs>
<clipPath id="clip0_1219_582">
<rect width="25.1941" height="26.5939" fill="white"/>
</clipPath>
</defs>
</svg>
