<svg width="24" height="25" viewBox="0 0 24 25" fill="none" xmlns="http://www.w3.org/2000/svg">
<path d="M22.0033 17.2472V20.2472C22.0044 20.5257 21.9474 20.8014 21.8358 21.0566C21.7242 21.3118 21.5606 21.5408 21.3554 21.7291C21.1501 21.9174 20.9079 22.0607 20.644 22.15C20.3802 22.2392 20.1007 22.2723 19.8233 22.2472C16.7461 21.9129 13.7903 20.8614 11.1933 19.1772C8.77712 17.6419 6.72863 15.5934 5.19329 13.1772C3.50327 10.5684 2.45153 7.59824 2.12329 4.50725C2.0983 4.23071 2.13116 3.95201 2.21979 3.68887C2.30842 3.42573 2.45086 3.18393 2.63806 2.97887C2.82525 2.7738 3.05309 2.60995 3.30708 2.49777C3.56107 2.38558 3.83563 2.32751 4.11329 2.32725H7.11329C7.5986 2.32247 8.06908 2.49432 8.43705 2.81078C8.80502 3.12723 9.04537 3.56669 9.11329 4.04725C9.23991 5.00731 9.47474 5.94997 9.81329 6.85725C9.94783 7.21517 9.97695 7.60416 9.8972 7.97813C9.81744 8.35209 9.63215 8.69536 9.36329 8.96725L8.09329 10.2372C9.51685 12.7408 11.5897 14.8137 14.0933 16.2372L15.3633 14.9672C15.6352 14.6984 15.9784 14.5131 16.3524 14.4333C16.7264 14.3536 17.1154 14.3827 17.4733 14.5172C18.3806 14.8558 19.3232 15.0906 20.2833 15.2172C20.7691 15.2858 21.2127 15.5305 21.5298 15.9047C21.847 16.279 22.0155 16.7568 22.0033 17.2472Z" stroke="#878787" stroke-width="2" stroke-linecap="round" stroke-linejoin="round"/>
</svg>
