<svg width="25" height="24" viewBox="0 0 25 24" fill="none" xmlns="http://www.w3.org/2000/svg">
<g clip-path="url(#clip0_1323_321)">
<path d="M20.4239 21.0001C20.3254 21.0003 20.2279 20.9809 20.1369 20.9432C20.0459 20.9054 19.9633 20.8501 19.8938 20.7803L3.39377 4.28025C3.25905 4.13845 3.18506 3.94964 3.18756 3.75407C3.19007 3.5585 3.26887 3.37164 3.40717 3.23334C3.54547 3.09504 3.73233 3.01624 3.9279 3.01373C4.12347 3.01123 4.31228 3.08522 4.45408 3.21994L20.9541 19.7199C21.0589 19.8248 21.1303 19.9584 21.1592 20.1039C21.1881 20.2493 21.1732 20.4001 21.1165 20.5371C21.0598 20.6741 20.9637 20.7912 20.8404 20.8736C20.7171 20.956 20.5722 21 20.4239 21.0001ZM11.7989 14.8056L9.37127 12.3779C9.35736 12.3641 9.33947 12.355 9.32013 12.3519C9.30079 12.3488 9.28096 12.3518 9.26343 12.3606C9.24589 12.3693 9.23154 12.3833 9.22238 12.4006C9.21322 12.418 9.20972 12.4377 9.21236 12.4571C9.31037 13.087 9.6061 13.6693 10.0568 14.12C10.5075 14.5707 11.0899 14.8665 11.7197 14.9645C11.7391 14.9671 11.7589 14.9636 11.7762 14.9544C11.7935 14.9453 11.8075 14.9309 11.8163 14.9134C11.825 14.8959 11.828 14.876 11.8249 14.8567C11.8218 14.8374 11.8127 14.8195 11.7989 14.8056ZM12.5489 9.19462L14.9803 11.6251C14.9942 11.6391 15.0121 11.6483 15.0316 11.6516C15.051 11.6548 15.071 11.6518 15.0886 11.643C15.1063 11.6343 15.1207 11.6201 15.1299 11.6027C15.139 11.5853 15.1425 11.5654 15.1397 11.5459C15.0419 10.9152 14.746 10.332 14.2947 9.88071C13.8434 9.42942 13.2602 9.13348 12.6295 9.03572C12.61 9.03271 12.59 9.03594 12.5725 9.04496C12.5549 9.05398 12.5406 9.06833 12.5316 9.08595C12.5227 9.10358 12.5196 9.12357 12.5227 9.14309C12.5258 9.16261 12.535 9.18064 12.5489 9.19462Z" fill="#313131"/>
<path d="M23.1894 12.8137C23.3446 12.5702 23.4267 12.2872 23.4259 11.9984C23.425 11.7096 23.3413 11.4271 23.1848 11.1844C21.9445 9.26625 20.3352 7.63688 18.5315 6.47203C16.5332 5.18203 14.3301 4.5 12.1588 4.5C11.0142 4.50157 9.87733 4.6882 8.79226 5.05266C8.76189 5.06276 8.73462 5.08046 8.71303 5.10409C8.69144 5.12772 8.67625 5.15647 8.66892 5.18763C8.66159 5.21878 8.66236 5.25129 8.67115 5.28207C8.67994 5.31284 8.69646 5.34085 8.71914 5.36344L10.9335 7.57781C10.9565 7.60086 10.9851 7.61752 11.0165 7.62615C11.0479 7.63478 11.081 7.63508 11.1126 7.62703C11.8632 7.44412 12.6482 7.45752 13.3921 7.66595C14.136 7.87438 14.8137 8.27082 15.36 8.8171C15.9063 9.36338 16.3027 10.0411 16.5112 10.785C16.7196 11.5289 16.733 12.3139 16.5501 13.0645C16.5421 13.096 16.5425 13.129 16.5511 13.1603C16.5597 13.1916 16.5763 13.2202 16.5993 13.2431L19.7845 16.4306C19.8176 16.4638 19.862 16.4834 19.9088 16.4855C19.9557 16.4876 20.0016 16.472 20.0376 16.4419C21.2636 15.3968 22.3261 14.1739 23.1894 12.8137ZM12.1738 16.5C11.4926 16.5 10.8203 16.3454 10.2075 16.0478C9.59477 15.7502 9.05758 15.3173 8.63645 14.7819C8.21533 14.2464 7.92127 13.6223 7.77645 12.9567C7.63162 12.2911 7.63981 11.6012 7.80039 10.9392C7.80835 10.9077 7.808 10.8747 7.79937 10.8434C7.79075 10.8121 7.77414 10.7836 7.75117 10.7606L4.61804 7.62609C4.58482 7.59283 4.54032 7.57327 4.49335 7.57127C4.44638 7.56927 4.40038 7.58499 4.36445 7.61531C3.22117 8.59078 2.16133 9.77766 1.19242 11.1647C1.02282 11.4081 0.929412 11.6965 0.924071 11.9931C0.918729 12.2897 1.00169 12.5813 1.16242 12.8306C2.40039 14.768 3.9932 16.3997 5.76929 17.5486C7.77039 18.8438 9.92008 19.5 12.1588 19.5C13.315 19.4969 14.4637 19.3143 15.5638 18.9586C15.5945 18.9488 15.6221 18.9313 15.644 18.9078C15.6659 18.8842 15.6814 18.8554 15.689 18.8242C15.6966 18.7929 15.696 18.7602 15.6873 18.7293C15.6786 18.6983 15.662 18.6701 15.6393 18.6473L13.4141 16.4227C13.3912 16.3997 13.3627 16.3831 13.3313 16.3744C13.3 16.3658 13.267 16.3655 13.2355 16.3734C12.8879 16.4577 12.5315 16.5002 12.1738 16.5Z" fill="#313131"/>
</g>
<defs>
<clipPath id="clip0_1323_321">
<rect width="24" height="24" fill="white" transform="translate(0.173828)"/>
</clipPath>
</defs>
</svg>
