<svg width="24" height="25" viewBox="0 0 24 25" fill="none" xmlns="http://www.w3.org/2000/svg">
<path d="M20.0033 7.61304H4.0033C2.89873 7.61304 2.0033 8.50847 2.0033 9.61304V19.613C2.0033 20.7176 2.89873 21.613 4.0033 21.613H20.0033C21.1079 21.613 22.0033 20.7176 22.0033 19.613V9.61304C22.0033 8.50847 21.1079 7.61304 20.0033 7.61304Z" stroke="#878787" stroke-width="2" stroke-linecap="round" stroke-linejoin="round"/>
<path d="M16.0033 21.613V5.61304C16.0033 5.0826 15.7926 4.5739 15.4175 4.19882C15.0424 3.82375 14.5337 3.61304 14.0033 3.61304H10.0033C9.47286 3.61304 8.96416 3.82375 8.58908 4.19882C8.21401 4.5739 8.0033 5.0826 8.0033 5.61304V21.613" stroke="#878787" stroke-width="2" stroke-linecap="round" stroke-linejoin="round"/>
</svg>
