<svg width="34" height="33" viewBox="0 0 34 33" fill="none" xmlns="http://www.w3.org/2000/svg">
<path d="M26.8317 7.45251L19.5075 3.34126C18.105 2.55751 15.9092 2.55751 14.5067 3.34126L7.11166 7.48001C4.17916 9.40501 4.00916 9.69376 4.00916 12.76V20.2263C4.00916 23.2925 4.17916 23.595 7.16832 25.5475L14.4925 29.6588C15.2008 30.0575 16.1075 30.25 17 30.25C17.8925 30.25 18.7992 30.0575 19.4933 29.6588L26.8883 25.52C29.8208 23.595 29.9908 23.3063 29.9908 20.24V12.76C29.9908 9.69376 29.8208 9.40501 26.8317 7.45251Z" fill="#9385E9"/>
<path d="M17 20.9687C19.5428 20.9687 21.6041 18.968 21.6041 16.5C21.6041 14.032 19.5428 12.0312 17 12.0312C14.4572 12.0312 12.3958 14.032 12.3958 16.5C12.3958 18.968 14.4572 20.9687 17 20.9687Z" fill="white"/>
</svg>
