<svg width="80" height="73" viewBox="0 0 80 73" fill="none" xmlns="http://www.w3.org/2000/svg">
<g clip-path="url(#clip0_1219_601)">
<path d="M25.3334 51.0475C30.2222 54.2918 35.1112 56.8875 40 56.8875C44.8888 56.8875 49.7779 54.2918 54.6667 51.0475C50.637 49.9281 48.5926 48.2573 48.5334 46.0348C48.5334 45.6387 48.5366 45.0761 48.5395 44.0198C48.5395 43.852 48.5399 43.6802 48.5408 43.5044C48.5488 40.672 48.5619 36.9344 48.5803 33.1384C52.4022 28.618 50.9982 23.3184 49.8006 23.4506C48.3323 23.6136 35.6115 12.5984 33.1715 12.0336C30.7315 11.4688 24.5334 13.2921 23.4667 18.3717C22.4 23.4513 21.9542 36.255 26 41.3667C27.1513 42.8213 28.9646 43.3903 31.44 43.0737C31.4435 44.1368 31.4504 44.7335 31.4667 45.9375C31.435 48.2611 29.3907 49.9294 25.3334 51.0475Z" fill="url(#paint0_linear_1219_601)"/>
<path d="M31.4667 43.07C37.3333 42.4617 41.0667 40.15 41.0667 40.15C41.0667 40.15 36.8 45.0167 31.4667 45.99V43.07Z" fill="#FC9F6A"/>
<path d="M50.5334 33.215C52.3707 29.183 59.7334 20.9712 53.3867 15.8612C51.2534 6.37121 39.4667 7.42168 31.6 9.61168C26.3128 11.0836 22.32 13.9917 21.4667 11.8017C16.1334 15.8612 18.8043 19.8317 22.32 20.9712C25.511 22.0054 30.9067 23.0395 40.0816 22.0662C41.7206 21.8922 41.3774 26.4725 42.2531 26.9677C43.567 27.7106 44.5867 23.0395 48.1888 24.4421C51.791 25.8447 49.6534 32.348 45.7867 32.348C44.4534 32.348 43.7867 35.6931 47.3867 37.2748C50 38.4467 49.3395 35.835 50.5334 33.215Z" fill="url(#paint1_linear_1219_601)"/>
<path d="M68 58.475C70.5387 63.1852 72 74.0483 72 74.0483H8C8 74.0483 9.46187 63.184 12 58.475C14.5381 53.766 29.36 49.3984 29.36 49.3984C37.5501 52.3167 42.5621 52.3167 50.6323 49.3967C50.6323 49.3967 65.4613 53.7648 68 58.475Z" fill="url(#paint2_linear_1219_601)"/>
<path d="M41.8667 51.1001L43.2 73.4868H36.8L38.1333 51.1001C38.1333 51.1001 39.3779 49.8834 40 49.8834C40.6221 49.8834 41.8667 51.1001 41.8667 51.1001Z" fill="url(#paint3_linear_1219_601)"/>
<path d="M42.1704 55.6485L37.9771 53.4376L38.1333 51.1001C38.963 50.289 39.5852 49.8834 40 49.8834C40.4147 49.8834 41.037 50.289 41.8667 51.1001L42.1707 55.6485H42.1704Z" fill="#645050"/>
<path d="M40 49.8814L37.3333 54.2634L29.0667 49.64L31.4667 46.4767L40 49.3531L48.5333 46.4767L50.9333 49.64L42.6667 54.2634L40 49.8814Z" fill="white"/>
</g>
<rect x="0.5" y="0.5" width="79" height="72" rx="36" stroke="#786363"/>
<defs>
<linearGradient id="paint0_linear_1219_601" x1="38.6991" y1="11.9348" x2="38.6991" y2="56.8875" gradientUnits="userSpaceOnUse">
<stop stop-color="#F7B186"/>
<stop offset="1" stop-color="#FFC299"/>
</linearGradient>
<linearGradient id="paint1_linear_1219_601" x1="37.1841" y1="8.12439" x2="37.1841" y2="37.563" gradientUnits="userSpaceOnUse">
<stop stop-color="#1D0024"/>
<stop offset="1" stop-color="#100014"/>
</linearGradient>
<linearGradient id="paint2_linear_1219_601" x1="40" y1="49.3967" x2="40" y2="74.0483" gradientUnits="userSpaceOnUse">
<stop stop-color="#1D0024"/>
<stop offset="1" stop-color="#100014"/>
</linearGradient>
<linearGradient id="paint3_linear_1219_601" x1="40" y1="49.8834" x2="40" y2="73.4868" gradientUnits="userSpaceOnUse">
<stop stop-color="#806A6A"/>
<stop offset="1" stop-color="#665654"/>
</linearGradient>
<clipPath id="clip0_1219_601">
<rect width="80" height="73" rx="36.5" fill="white"/>
</clipPath>
</defs>
</svg>
